<svg xmlns="http://www.w3.org/2000/svg" width="1147" height="914" viewBox="0 0 1147 914">
<g>
<path d="M 536.22 850.17 L 528.50 853.50 L 399.50 853.64 C328.55,853.72 268.42,853.42 265.88,852.99 C244.51,849.34 222.03,830.70 214.16,810.10 C212.42,805.54 210.82,798.86 210.29,793.92 C209.76,789.05 209.62,732.12 209.94,659.00 L 210.50 532.50 L 213.40 525.50 C221.90,504.97 237.32,490.07 257.00,483.37 C262.27,481.58 268.16,481.50 396.00,481.50 C520.60,481.50 529.82,481.62 534.28,483.25 C557.17,491.62 572.67,507.93 579.18,530.51 C581.47,538.47 581.48,538.66 581.01,587.00 C580.76,613.67 580.54,673.08 580.52,719.00 L 580.50 802.50 L 577.63 809.27 C569.66,828.11 555.95,841.66 536.22,850.17 Z" fill="rgb(47,62,84)"/>
<path d="M 568.35 445.61 C567.29,446.12 493.85,446.56 396.00,446.65 C388.38,446.66 381.08,446.66 374.07,446.67 C222.66,446.81 209.09,446.83 198.99,440.91 C197.53,440.05 196.14,439.07 194.42,437.95 C183.74,430.99 176.92,421.74 170.84,406.00 C167.63,397.70 167.56,397.14 167.57,382.00 C167.59,368.58 167.89,365.63 169.82,360.03 C172.63,351.89 177.98,342.11 182.79,336.31 C187.36,330.80 199.34,321.64 205.33,319.07 C207.78,318.02 210.09,316.67 210.46,316.06 C210.84,315.46 209.59,312.83 207.70,310.23 C200.24,299.99 197.05,289.83 197.02,276.19 C196.99,263.95 198.77,255.29 203.28,245.64 C208.33,234.87 208.13,234.58 195.26,233.70 C185.43,233.03 172.09,228.98 165.00,224.50 C147.09,213.19 137.79,194.67 137.81,170.36 C137.82,157.53 140.12,146.90 145.22,136.10 C152.15,121.47 166.32,109.65 184.43,103.39 L 191.35 101.00 L 542.05 101.00 L 543.02 103.57 C543.56,104.98 544.00,110.12 544.00,114.99 C544.00,123.33 543.85,123.98 541.42,125.89 C540.00,127.00 537.87,128.23 536.68,128.60 C528.80,131.10 521.24,140.31 518.58,150.64 C515.43,162.87 517.61,184.12 522.80,191.73 C523.84,193.25 525.92,196.38 527.43,198.68 C528.94,200.97 530.92,203.21 531.83,203.65 C532.75,204.09 549.03,204.68 568.00,204.97 L 602.50 205.50 L 602.80 216.00 C603.25,231.55 603.03,232.21 596.50,234.91 C587.92,238.47 583.36,245.44 579.45,261.00 C577.55,268.57 577.62,285.32 579.57,290.93 C584.04,303.77 590.09,312.00 595.05,312.00 C596.60,312.00 599.07,312.46 600.54,313.02 L 603.21 314.03 L 602.85 325.47 C602.65,331.91 602.01,337.39 601.40,338.00 C600.80,338.60 593.37,339.53 584.90,340.05 C562.70,341.43 559.97,342.12 556.21,347.36 C551.52,353.89 547.84,362.71 546.35,371.00 C542.67,391.45 552.73,417.00 564.45,417.00 C569.21,417.00 570.86,417.83 572.54,421.07 C575.82,427.43 573.11,443.30 568.35,445.61 ZM 226.00 415.06 C227.93,415.45 299.15,415.82 384.28,415.89 C398.40,415.90 411.28,415.91 423.01,415.92 C521.75,416.03 539.70,416.05 540.25,412.95 C540.37,412.27 539.64,411.42 538.74,410.40 C538.26,409.85 537.74,409.24 537.27,408.58 C525.99,392.57 525.15,370.42 535.10,351.19 C537.24,347.04 539.00,343.22 539.00,342.69 C539.00,342.08 481.77,341.96 381.78,342.36 L 224.56 342.98 L 219.53 345.46 C208.03,351.12 200.63,362.73 199.26,377.30 C198.34,387.01 202.52,397.49 210.56,405.63 C216.08,411.22 220.59,413.97 226.00,415.06 ZM 196.00 203.29 C196.82,203.59 227.71,203.88 264.63,203.92 C321.39,203.99 331.94,203.78 332.93,202.58 C333.76,201.58 334.06,195.05 333.94,180.33 L 333.77 159.50 L 372.01 159.24 L 410.26 158.98 L 409.52 180.01 C408.96,196.06 409.08,201.39 410.02,202.52 C411.07,203.79 418.20,204.00 460.06,204.00 C491.59,204.00 509.10,203.65 509.50,203.00 C509.84,202.45 508.53,199.41 506.58,196.25 C500.75,186.77 498.76,179.86 498.75,169.00 C498.74,158.94 501.68,144.50 505.80,134.35 L 507.90 129.19 L 505.70 128.78 C504.49,128.55 434.42,128.41 350.00,128.45 L 196.50 128.54 L 190.65 131.48 C185.25,134.20 176.00,142.86 176.00,145.20 C176.00,145.75 175.17,147.39 174.15,148.85 C171.49,152.66 170.00,159.75 170.00,168.54 C170.00,175.19 170.45,177.13 173.42,183.35 C178.30,193.57 184.56,199.09 196.00,203.29 ZM 256.50 309.29 C257.60,309.55 328.66,309.71 414.42,309.64 C531.51,309.53 570.43,309.21 570.72,308.34 C570.93,307.71 569.06,304.88 566.56,302.07 C558.32,292.79 557.49,290.36 557.55,275.50 C557.61,261.09 558.79,255.71 564.63,243.35 C566.48,239.41 568.00,235.79 568.00,235.31 C568.00,234.31 428.18,233.65 415.25,234.58 L 407.00 235.18 L 407.00 265.09 C407.00,281.54 406.73,295.00 406.41,295.00 C406.09,295.00 399.23,288.68 391.18,280.96 C383.12,273.24 375.56,266.68 374.37,266.38 C370.74,265.47 363.83,269.87 346.31,284.25 C341.12,288.51 336.45,292.00 335.94,292.00 C335.38,292.00 335.00,281.14 335.00,265.00 L 335.00 238.00 L 251.65 238.00 L 246.29 241.69 C234.37,249.90 228.25,262.63 229.30,277.00 C230.22,289.62 237.82,301.15 248.45,306.02 C251.78,307.55 255.40,309.02 256.50,309.29 Z" fill="rgb(50,48,48)"/>
<path d="M 937.50 446.86 C930.62,448.07 712.56,449.02 689.00,447.94 C672.29,447.18 661.98,444.39 652.15,437.99 C636.34,427.69 623.69,408.75 620.99,391.36 C620.26,386.67 620.03,344.00 620.26,256.99 C620.57,137.06 620.33,126.77 624.23,118.40 C624.87,117.04 625.61,115.73 626.49,114.00 C637.02,93.23 655.07,78.87 674.84,75.53 C676.94,75.17 735.78,74.72 805.58,74.52 L 932.50 74.17 L 941.50 76.71 C954.20,80.29 962.01,84.95 972.09,94.96 C979.57,102.39 981.34,104.86 985.74,114.00 C989.19,121.17 991.02,126.40 991.51,130.50 C992.41,138.05 992.41,387.14 991.51,392.53 C989.13,406.76 976.61,426.48 965.00,434.29 C956.56,439.96 954.30,441.27 949.18,443.42 C946.06,444.73 940.80,446.28 937.50,446.86 Z" fill="rgb(116,110,179)"/>
<path d="M 935.98 852.93 C928.04,854.22 684.07,854.20 676.36,852.91 C670.77,851.97 657.88,846.47 651.50,842.28 C643.73,837.19 631.55,823.64 627.27,815.32 C626.21,813.25 625.31,811.69 624.55,810.07 C620.48,801.31 620.48,790.65 620.50,688.85 C620.50,681.84 620.50,674.40 620.50,666.50 C620.50,659.40 620.50,652.68 620.50,646.31 C620.49,542.62 620.48,532.87 624.16,524.79 C624.76,523.45 625.47,522.16 626.30,520.50 C634.80,503.37 647.44,491.31 664.71,483.86 L 672.50 480.50 L 800.50 480.20 C930.79,479.90 935.22,480.01 945.99,483.63 C963.65,489.57 978.24,503.76 988.12,524.61 L 991.39 531.50 L 992.15 659.50 C992.66,745.29 992.57,790.14 991.88,795.50 C989.99,810.29 979.56,827.52 965.68,838.78 C957.64,845.30 944.54,851.55 935.98,852.93 Z" fill="rgb(229,131,82)"/>
<path d="M 0.00 457.00 L 0.00 0.00 L 573.50 0.00 L 1147.00 0.00 L 1147.00 457.00 L 1147.00 914.00 L 573.50 914.00 L 0.00 914.00 L 0.00 457.00 ZM 536.22 850.17 C555.95,841.66 569.66,828.11 577.63,809.27 L 580.50 802.50 L 580.52 719.00 C580.54,673.08 580.76,613.67 581.01,587.00 C581.48,538.66 581.47,538.47 579.18,530.51 C572.67,507.93 557.17,491.62 534.28,483.25 C529.82,481.62 520.60,481.50 396.00,481.50 C268.16,481.50 262.27,481.58 257.00,483.37 C237.32,490.07 221.90,504.97 213.40,525.50 L 210.50 532.50 L 209.94 659.00 C209.62,732.12 209.76,789.05 210.29,793.92 C210.82,798.86 212.42,805.54 214.16,810.10 C222.03,830.70 244.51,849.34 265.88,852.99 C268.42,853.42 328.55,853.72 399.50,853.64 L 528.50 853.50 L 536.22 850.17 ZM 935.98 852.93 C944.54,851.55 957.64,845.30 965.68,838.78 C979.56,827.52 989.99,810.29 991.88,795.50 C992.57,790.14 992.66,745.29 992.15,659.50 L 991.39 531.50 L 988.12 524.61 C978.24,503.76 963.65,489.57 945.99,483.63 C935.22,480.01 930.79,479.90 800.50,480.20 L 672.50 480.50 L 664.71 483.86 C647.44,491.31 634.80,503.37 626.30,520.50 C620.18,532.83 620.50,524.73 620.50,666.50 C620.50,810.50 620.08,801.36 627.27,815.32 C631.55,823.64 643.73,837.19 651.50,842.28 C657.88,846.47 670.77,851.97 676.36,852.91 C684.07,854.20 928.04,854.22 935.98,852.93 ZM 937.50 446.86 C940.80,446.28 946.06,444.73 949.18,443.42 C954.30,441.27 956.56,439.96 965.00,434.29 C976.61,426.48 989.13,406.76 991.51,392.53 C992.41,387.14 992.41,138.05 991.51,130.50 C991.02,126.40 989.19,121.17 985.74,114.00 C981.34,104.86 979.57,102.39 972.09,94.96 C962.01,84.95 954.20,80.29 941.50,76.71 L 932.50 74.17 L 805.58 74.52 C735.78,74.72 676.94,75.17 674.84,75.53 C655.07,78.87 637.02,93.23 626.49,114.00 C620.24,126.33 620.62,117.50 620.26,256.99 C620.03,344.00 620.26,386.67 620.99,391.36 C623.69,408.75 636.34,427.69 652.15,437.99 C661.98,444.39 672.29,447.18 689.00,447.94 C712.56,449.02 930.62,448.07 937.50,446.86 ZM 568.35 445.61 C573.11,443.30 575.82,427.43 572.54,421.07 C570.86,417.83 569.21,417.00 564.45,417.00 C552.73,417.00 542.67,391.45 546.35,371.00 C547.84,362.71 551.52,353.89 556.21,347.36 C559.97,342.12 562.70,341.43 584.90,340.05 C593.37,339.53 600.80,338.60 601.40,338.00 C602.01,337.39 602.65,331.91 602.85,325.47 L 603.21 314.03 L 600.54 313.02 C599.07,312.46 596.60,312.00 595.05,312.00 C590.09,312.00 584.04,303.77 579.57,290.93 C577.62,285.32 577.55,268.57 579.45,261.00 C583.36,245.44 587.92,238.47 596.50,234.91 C603.03,232.21 603.25,231.55 602.80,216.00 L 602.50 205.50 L 568.00 204.97 C549.03,204.68 532.75,204.09 531.83,203.65 C530.92,203.21 528.94,200.97 527.43,198.68 C525.92,196.38 523.84,193.25 522.80,191.73 C517.61,184.12 515.43,162.87 518.58,150.64 C521.24,140.31 528.80,131.10 536.68,128.60 C537.87,128.23 540.00,127.00 541.42,125.89 C543.85,123.98 544.00,123.33 544.00,114.99 C544.00,110.12 543.56,104.98 543.02,103.57 L 542.05 101.00 L 366.70 101.00 L 191.35 101.00 L 184.43 103.39 C166.32,109.65 152.15,121.47 145.22,136.10 C140.12,146.90 137.82,157.53 137.81,170.36 C137.79,194.67 147.09,213.19 165.00,224.50 C172.09,228.98 185.43,233.03 195.26,233.70 C208.13,234.58 208.33,234.87 203.28,245.64 C198.77,255.29 196.99,263.95 197.02,276.19 C197.05,289.83 200.24,299.99 207.70,310.23 C209.59,312.83 210.84,315.46 210.46,316.06 C210.09,316.67 207.78,318.02 205.33,319.07 C199.34,321.64 187.36,330.80 182.79,336.31 C177.98,342.11 172.63,351.89 169.82,360.03 C167.89,365.63 167.59,368.58 167.57,382.00 C167.56,397.14 167.63,397.70 170.84,406.00 C176.92,421.74 183.74,430.99 194.42,437.95 C208.60,447.19 200.12,446.82 396.00,446.65 C493.85,446.56 567.29,446.12 568.35,445.61 ZM 226.00 415.06 C220.59,413.97 216.08,411.22 210.56,405.63 C202.52,397.49 198.34,387.01 199.26,377.30 C200.63,362.73 208.03,351.12 219.53,345.46 L 224.56 342.98 L 381.78 342.36 C481.77,341.96 539.00,342.08 539.00,342.69 C539.00,343.22 537.24,347.04 535.10,351.19 C525.15,370.42 525.99,392.57 537.27,408.58 C543.01,416.72 557.76,416.01 384.28,415.89 C299.15,415.82 227.93,415.45 226.00,415.06 ZM 256.50 309.29 C255.40,309.02 251.78,307.55 248.45,306.02 C237.82,301.15 230.22,289.62 229.30,277.00 C228.25,262.63 234.37,249.90 246.29,241.69 L 251.65 238.00 L 293.32 238.00 L 335.00 238.00 L 335.00 265.00 C335.00,281.14 335.38,292.00 335.94,292.00 C336.45,292.00 341.12,288.51 346.31,284.25 C363.83,269.87 370.74,265.47 374.37,266.38 C375.56,266.68 383.12,273.24 391.18,280.96 C399.23,288.68 406.09,295.00 406.41,295.00 C406.73,295.00 407.00,281.54 407.00,265.09 L 407.00 235.18 L 415.25 234.58 C428.18,233.65 568.00,234.31 568.00,235.31 C568.00,235.79 566.48,239.41 564.63,243.35 C558.79,255.71 557.61,261.09 557.55,275.50 C557.49,290.36 558.32,292.79 566.56,302.07 C569.06,304.88 570.93,307.71 570.72,308.34 C570.43,309.21 531.51,309.53 414.42,309.64 C328.66,309.71 257.60,309.55 256.50,309.29 ZM 196.00 203.29 C184.56,199.09 178.30,193.57 173.42,183.35 C170.45,177.13 170.00,175.19 170.00,168.54 C170.00,159.75 171.49,152.66 174.15,148.85 C175.17,147.39 176.00,145.75 176.00,145.20 C176.00,142.86 185.25,134.20 190.65,131.48 L 196.50 128.54 L 350.00 128.45 C434.42,128.41 504.49,128.55 505.70,128.78 L 507.90 129.19 L 505.80 134.35 C501.68,144.50 498.74,158.94 498.75,169.00 C498.76,179.86 500.75,186.77 506.58,196.25 C508.53,199.41 509.84,202.45 509.50,203.00 C509.10,203.65 491.59,204.00 460.06,204.00 C418.20,204.00 411.07,203.79 410.02,202.52 C409.08,201.39 408.96,196.06 409.52,180.01 L 410.26 158.98 L 372.01 159.24 L 333.77 159.50 L 333.94 180.33 C334.06,195.05 333.76,201.58 332.93,202.58 C331.94,203.78 321.39,203.99 264.63,203.92 C227.71,203.88 196.82,203.59 196.00,203.29 Z" fill="rgb(254,254,254)"/>
</g>
</svg>